<mxfile host="Electron" modified="2023-11-14T10:21:46.661Z" agent="Mozilla/5.0 (Macintosh; Intel Mac OS X 10_15_7) AppleWebKit/537.36 (KHTML, like Gecko) draw.io/22.0.3 Chrome/114.0.5735.289 Electron/25.8.4 Safari/537.36" etag="Mm5MHi8tfxsqCZb16ov-" version="22.0.3" type="device">
  <diagram name="Page-1" id="EXwZkO7RL-VwxWukJFrX">
    <mxGraphModel dx="1434" dy="974" grid="1" gridSize="10" guides="1" tooltips="1" connect="1" arrows="1" fold="1" page="1" pageScale="1" pageWidth="1169" pageHeight="827" math="0" shadow="0">
      <root>
        <mxCell id="0" />
        <mxCell id="1" parent="0" />
        <mxCell id="odNg1halhqqwqWIwjPwi-1" value="" style="rounded=1;whiteSpace=wrap;html=1;strokeColor=#4D9900;strokeWidth=2;" vertex="1" parent="1">
          <mxGeometry x="80" y="20" width="160" height="40" as="geometry" />
        </mxCell>
        <mxCell id="odNg1halhqqwqWIwjPwi-2" value="" style="rounded=1;whiteSpace=wrap;html=1;strokeWidth=2;strokeColor=#66CC00;" vertex="1" parent="1">
          <mxGeometry x="360" y="20" width="160" height="40" as="geometry" />
        </mxCell>
        <mxCell id="odNg1halhqqwqWIwjPwi-3" value="" style="rounded=1;whiteSpace=wrap;html=1;strokeColor=#80FF00;strokeWidth=2;" vertex="1" parent="1">
          <mxGeometry x="640" y="20" width="160" height="40" as="geometry" />
        </mxCell>
        <mxCell id="odNg1halhqqwqWIwjPwi-4" value="" style="rounded=1;whiteSpace=wrap;html=1;strokeColor=#CCFF99;strokeWidth=2;" vertex="1" parent="1">
          <mxGeometry x="920" y="20" width="160" height="40" as="geometry" />
        </mxCell>
        <mxCell id="odNg1halhqqwqWIwjPwi-5" value="&lt;font style=&quot;font-size: 18px;&quot;&gt;&lt;b&gt;Objectif&lt;/b&gt;&lt;/font&gt;" style="text;html=1;strokeColor=none;fillColor=none;align=center;verticalAlign=middle;whiteSpace=wrap;rounded=0;" vertex="1" parent="1">
          <mxGeometry x="100" y="25" width="120" height="30" as="geometry" />
        </mxCell>
        <mxCell id="odNg1halhqqwqWIwjPwi-8" value="&lt;span style=&quot;font-size: 18px;&quot;&gt;&lt;b&gt;Acteur&lt;/b&gt;&lt;/span&gt;" style="text;html=1;strokeColor=none;fillColor=none;align=center;verticalAlign=middle;whiteSpace=wrap;rounded=0;" vertex="1" parent="1">
          <mxGeometry x="380" y="25" width="120" height="30" as="geometry" />
        </mxCell>
        <mxCell id="odNg1halhqqwqWIwjPwi-9" value="&lt;span style=&quot;font-size: 18px;&quot;&gt;&lt;b&gt;Impact&lt;/b&gt;&lt;/span&gt;" style="text;html=1;strokeColor=none;fillColor=none;align=center;verticalAlign=middle;whiteSpace=wrap;rounded=0;" vertex="1" parent="1">
          <mxGeometry x="660" y="25" width="120" height="30" as="geometry" />
        </mxCell>
        <mxCell id="odNg1halhqqwqWIwjPwi-10" value="&lt;span style=&quot;font-size: 18px;&quot;&gt;&lt;b&gt;Fonctionnalité&lt;/b&gt;&lt;/span&gt;" style="text;html=1;strokeColor=none;fillColor=none;align=center;verticalAlign=middle;whiteSpace=wrap;rounded=0;" vertex="1" parent="1">
          <mxGeometry x="940" y="25" width="120" height="30" as="geometry" />
        </mxCell>
        <mxCell id="odNg1halhqqwqWIwjPwi-11" value="" style="rounded=1;whiteSpace=wrap;html=1;fillColor=#4D9900;strokeColor=none;" vertex="1" parent="1">
          <mxGeometry x="80" y="385" width="160" height="110" as="geometry" />
        </mxCell>
        <mxCell id="odNg1halhqqwqWIwjPwi-12" value="" style="rounded=1;whiteSpace=wrap;html=1;fillColor=#66CC00;strokeColor=none;" vertex="1" parent="1">
          <mxGeometry x="360" y="220" width="160" height="40" as="geometry" />
        </mxCell>
        <mxCell id="odNg1halhqqwqWIwjPwi-13" value="" style="rounded=1;whiteSpace=wrap;html=1;fillColor=#80FF00;strokeColor=none;" vertex="1" parent="1">
          <mxGeometry x="640" y="130" width="160" height="40" as="geometry" />
        </mxCell>
        <mxCell id="odNg1halhqqwqWIwjPwi-14" value="" style="rounded=1;whiteSpace=wrap;html=1;fillColor=#B3FF66;strokeColor=none;" vertex="1" parent="1">
          <mxGeometry x="920" y="110" width="160" height="40" as="geometry" />
        </mxCell>
        <mxCell id="odNg1halhqqwqWIwjPwi-15" value="&lt;font color=&quot;#ffffff&quot;&gt;Devenir la plateforme de référence dans la promotion d&#39;événements&lt;/font&gt;" style="text;html=1;strokeColor=none;fillColor=none;align=center;verticalAlign=middle;whiteSpace=wrap;rounded=0;" vertex="1" parent="1">
          <mxGeometry x="80" y="385" width="160" height="110" as="geometry" />
        </mxCell>
        <mxCell id="odNg1halhqqwqWIwjPwi-16" value="" style="rounded=1;whiteSpace=wrap;html=1;fillColor=#66CC00;strokeColor=none;" vertex="1" parent="1">
          <mxGeometry x="360" y="420" width="160" height="40" as="geometry" />
        </mxCell>
        <mxCell id="odNg1halhqqwqWIwjPwi-17" value="" style="rounded=1;whiteSpace=wrap;html=1;fillColor=#66CC00;strokeColor=none;" vertex="1" parent="1">
          <mxGeometry x="360" y="625" width="160" height="40" as="geometry" />
        </mxCell>
        <mxCell id="odNg1halhqqwqWIwjPwi-18" value="" style="rounded=1;whiteSpace=wrap;html=1;fillColor=#66CC00;strokeColor=none;" vertex="1" parent="1">
          <mxGeometry x="360" y="740" width="160" height="40" as="geometry" />
        </mxCell>
        <mxCell id="odNg1halhqqwqWIwjPwi-19" value="&lt;font color=&quot;#ffffff&quot; style=&quot;font-size: 18px;&quot;&gt;Utilisateur&lt;/font&gt;" style="text;html=1;strokeColor=none;fillColor=none;align=center;verticalAlign=middle;whiteSpace=wrap;rounded=0;" vertex="1" parent="1">
          <mxGeometry x="360" y="225" width="160" height="30" as="geometry" />
        </mxCell>
        <mxCell id="odNg1halhqqwqWIwjPwi-20" value="&lt;font color=&quot;#ffffff&quot;&gt;&lt;span style=&quot;font-size: 18px;&quot;&gt;Organisateur&lt;/span&gt;&lt;/font&gt;" style="text;html=1;strokeColor=none;fillColor=none;align=center;verticalAlign=middle;whiteSpace=wrap;rounded=0;" vertex="1" parent="1">
          <mxGeometry x="360" y="425" width="160" height="30" as="geometry" />
        </mxCell>
        <mxCell id="odNg1halhqqwqWIwjPwi-21" value="&lt;font color=&quot;#ffffff&quot;&gt;&lt;span style=&quot;font-size: 18px;&quot;&gt;Staff&lt;/span&gt;&lt;/font&gt;" style="text;html=1;strokeColor=none;fillColor=none;align=center;verticalAlign=middle;whiteSpace=wrap;rounded=0;" vertex="1" parent="1">
          <mxGeometry x="360" y="630" width="160" height="30" as="geometry" />
        </mxCell>
        <mxCell id="odNg1halhqqwqWIwjPwi-22" value="&lt;font color=&quot;#ffffff&quot;&gt;&lt;span style=&quot;font-size: 18px;&quot;&gt;Administrateurs&lt;/span&gt;&lt;/font&gt;" style="text;html=1;strokeColor=none;fillColor=none;align=center;verticalAlign=middle;whiteSpace=wrap;rounded=0;" vertex="1" parent="1">
          <mxGeometry x="360" y="745" width="160" height="30" as="geometry" />
        </mxCell>
        <mxCell id="odNg1halhqqwqWIwjPwi-23" value="" style="rounded=1;whiteSpace=wrap;html=1;fillColor=#80FF00;strokeColor=none;" vertex="1" parent="1">
          <mxGeometry x="640" y="220" width="160" height="40" as="geometry" />
        </mxCell>
        <mxCell id="odNg1halhqqwqWIwjPwi-24" value="" style="rounded=1;whiteSpace=wrap;html=1;fillColor=#80FF00;strokeColor=none;" vertex="1" parent="1">
          <mxGeometry x="640" y="280" width="160" height="40" as="geometry" />
        </mxCell>
        <mxCell id="odNg1halhqqwqWIwjPwi-25" value="" style="rounded=1;whiteSpace=wrap;html=1;fillColor=#80FF00;strokeColor=none;" vertex="1" parent="1">
          <mxGeometry x="640" y="366" width="160" height="40" as="geometry" />
        </mxCell>
        <mxCell id="odNg1halhqqwqWIwjPwi-26" value="" style="rounded=1;whiteSpace=wrap;html=1;fillColor=#80FF00;strokeColor=none;" vertex="1" parent="1">
          <mxGeometry x="640" y="480" width="160" height="40" as="geometry" />
        </mxCell>
        <mxCell id="odNg1halhqqwqWIwjPwi-27" value="" style="rounded=1;whiteSpace=wrap;html=1;fillColor=#80FF00;strokeColor=none;" vertex="1" parent="1">
          <mxGeometry x="640" y="600" width="160" height="40" as="geometry" />
        </mxCell>
        <mxCell id="odNg1halhqqwqWIwjPwi-28" value="" style="rounded=1;whiteSpace=wrap;html=1;fillColor=#80FF00;strokeColor=none;" vertex="1" parent="1">
          <mxGeometry x="640" y="655" width="160" height="40" as="geometry" />
        </mxCell>
        <mxCell id="odNg1halhqqwqWIwjPwi-29" value="" style="rounded=1;whiteSpace=wrap;html=1;fillColor=#80FF00;strokeColor=none;" vertex="1" parent="1">
          <mxGeometry x="640" y="740" width="160" height="40" as="geometry" />
        </mxCell>
        <mxCell id="odNg1halhqqwqWIwjPwi-30" value="&lt;font style=&quot;font-size: 12px;&quot;&gt;Trouver des événements&lt;/font&gt;" style="text;html=1;strokeColor=none;fillColor=none;align=center;verticalAlign=middle;whiteSpace=wrap;rounded=0;" vertex="1" parent="1">
          <mxGeometry x="640" y="135" width="160" height="30" as="geometry" />
        </mxCell>
        <mxCell id="odNg1halhqqwqWIwjPwi-31" value="&lt;font style=&quot;font-size: 18px;&quot;&gt;S&#39;informer&lt;/font&gt;" style="text;html=1;strokeColor=none;fillColor=none;align=center;verticalAlign=middle;whiteSpace=wrap;rounded=0;" vertex="1" parent="1">
          <mxGeometry x="640" y="225" width="160" height="30" as="geometry" />
        </mxCell>
        <mxCell id="odNg1halhqqwqWIwjPwi-32" value="&lt;font style=&quot;font-size: 14px;&quot;&gt;Réserver des places&lt;/font&gt;" style="text;html=1;strokeColor=none;fillColor=none;align=center;verticalAlign=middle;whiteSpace=wrap;rounded=0;" vertex="1" parent="1">
          <mxGeometry x="640" y="285" width="160" height="30" as="geometry" />
        </mxCell>
        <mxCell id="odNg1halhqqwqWIwjPwi-33" value="Publier des annonces" style="text;html=1;strokeColor=none;fillColor=none;align=center;verticalAlign=middle;whiteSpace=wrap;rounded=0;" vertex="1" parent="1">
          <mxGeometry x="640" y="371" width="160" height="30" as="geometry" />
        </mxCell>
        <mxCell id="odNg1halhqqwqWIwjPwi-34" value="Gérer les réservations" style="text;html=1;strokeColor=none;fillColor=none;align=center;verticalAlign=middle;whiteSpace=wrap;rounded=0;" vertex="1" parent="1">
          <mxGeometry x="640" y="485" width="160" height="30" as="geometry" />
        </mxCell>
        <mxCell id="odNg1halhqqwqWIwjPwi-35" value="" style="rounded=1;whiteSpace=wrap;html=1;fillColor=#80FF00;strokeColor=none;" vertex="1" parent="1">
          <mxGeometry x="640" y="420" width="160" height="40" as="geometry" />
        </mxCell>
        <mxCell id="odNg1halhqqwqWIwjPwi-36" value="Gérer les annonces" style="text;html=1;strokeColor=none;fillColor=none;align=center;verticalAlign=middle;whiteSpace=wrap;rounded=0;" vertex="1" parent="1">
          <mxGeometry x="640" y="425" width="160" height="30" as="geometry" />
        </mxCell>
        <mxCell id="odNg1halhqqwqWIwjPwi-37" value="Gérer les annonces" style="text;html=1;strokeColor=none;fillColor=none;align=center;verticalAlign=middle;whiteSpace=wrap;rounded=0;" vertex="1" parent="1">
          <mxGeometry x="640" y="605" width="160" height="30" as="geometry" />
        </mxCell>
        <mxCell id="odNg1halhqqwqWIwjPwi-38" value="Gérer les organisateurs" style="text;html=1;strokeColor=none;fillColor=none;align=center;verticalAlign=middle;whiteSpace=wrap;rounded=0;" vertex="1" parent="1">
          <mxGeometry x="640" y="660" width="160" height="30" as="geometry" />
        </mxCell>
        <mxCell id="odNg1halhqqwqWIwjPwi-39" value="Gérer les membres du staff" style="text;html=1;strokeColor=none;fillColor=none;align=center;verticalAlign=middle;whiteSpace=wrap;rounded=0;" vertex="1" parent="1">
          <mxGeometry x="640" y="745" width="160" height="30" as="geometry" />
        </mxCell>
        <mxCell id="odNg1halhqqwqWIwjPwi-40" value="" style="rounded=1;whiteSpace=wrap;html=1;fillColor=#B3FF66;strokeColor=none;" vertex="1" parent="1">
          <mxGeometry x="920" y="160" width="160" height="40" as="geometry" />
        </mxCell>
        <mxCell id="odNg1halhqqwqWIwjPwi-41" value="" style="rounded=1;whiteSpace=wrap;html=1;fillColor=#B3FF66;strokeColor=none;" vertex="1" parent="1">
          <mxGeometry x="920" y="220" width="160" height="40" as="geometry" />
        </mxCell>
        <mxCell id="odNg1halhqqwqWIwjPwi-42" value="" style="rounded=1;whiteSpace=wrap;html=1;fillColor=#B3FF66;strokeColor=none;" vertex="1" parent="1">
          <mxGeometry x="920" y="280" width="160" height="40" as="geometry" />
        </mxCell>
        <mxCell id="odNg1halhqqwqWIwjPwi-43" value="" style="rounded=1;whiteSpace=wrap;html=1;fillColor=#B3FF66;strokeColor=none;" vertex="1" parent="1">
          <mxGeometry x="920" y="540" width="160" height="40" as="geometry" />
        </mxCell>
        <mxCell id="odNg1halhqqwqWIwjPwi-44" value="Lister les événements" style="text;html=1;strokeColor=none;fillColor=none;align=center;verticalAlign=middle;whiteSpace=wrap;rounded=0;" vertex="1" parent="1">
          <mxGeometry x="920" y="115" width="160" height="30" as="geometry" />
        </mxCell>
        <mxCell id="odNg1halhqqwqWIwjPwi-45" value="&lt;font style=&quot;font-size: 18px;&quot;&gt;Rechercher&lt;/font&gt;" style="text;html=1;strokeColor=none;fillColor=none;align=center;verticalAlign=middle;whiteSpace=wrap;rounded=0;" vertex="1" parent="1">
          <mxGeometry x="920" y="165" width="160" height="30" as="geometry" />
        </mxCell>
        <mxCell id="odNg1halhqqwqWIwjPwi-46" value="&lt;font style=&quot;font-size: 14px;&quot;&gt;Afficher les détails&lt;/font&gt;" style="text;html=1;strokeColor=none;fillColor=none;align=center;verticalAlign=middle;whiteSpace=wrap;rounded=0;" vertex="1" parent="1">
          <mxGeometry x="920" y="225" width="160" height="30" as="geometry" />
        </mxCell>
        <mxCell id="odNg1halhqqwqWIwjPwi-47" value="&lt;span style=&quot;font-size: 14px;&quot;&gt;Réserver en ligne&lt;/span&gt;" style="text;html=1;strokeColor=none;fillColor=none;align=center;verticalAlign=middle;whiteSpace=wrap;rounded=0;" vertex="1" parent="1">
          <mxGeometry x="920" y="285" width="160" height="30" as="geometry" />
        </mxCell>
        <mxCell id="odNg1halhqqwqWIwjPwi-48" value="&lt;font style=&quot;font-size: 18px;&quot;&gt;Back-Office&lt;/font&gt;" style="text;html=1;strokeColor=none;fillColor=none;align=center;verticalAlign=middle;whiteSpace=wrap;rounded=0;" vertex="1" parent="1">
          <mxGeometry x="920" y="545" width="160" height="30" as="geometry" />
        </mxCell>
        <mxCell id="odNg1halhqqwqWIwjPwi-49" value="" style="endArrow=none;html=1;rounded=0;entryX=0;entryY=0.5;entryDx=0;entryDy=0;" edge="1" parent="1" target="odNg1halhqqwqWIwjPwi-19">
          <mxGeometry width="50" height="50" relative="1" as="geometry">
            <mxPoint x="240" y="439" as="sourcePoint" />
            <mxPoint x="340" y="440" as="targetPoint" />
            <Array as="points">
              <mxPoint x="300" y="440" />
              <mxPoint x="300" y="240" />
            </Array>
          </mxGeometry>
        </mxCell>
        <mxCell id="odNg1halhqqwqWIwjPwi-50" value="" style="endArrow=none;html=1;rounded=0;entryX=0;entryY=0.5;entryDx=0;entryDy=0;" edge="1" parent="1" target="odNg1halhqqwqWIwjPwi-20">
          <mxGeometry width="50" height="50" relative="1" as="geometry">
            <mxPoint x="240" y="439" as="sourcePoint" />
            <mxPoint x="290" y="389" as="targetPoint" />
            <Array as="points">
              <mxPoint x="300" y="440" />
            </Array>
          </mxGeometry>
        </mxCell>
        <mxCell id="odNg1halhqqwqWIwjPwi-51" value="" style="endArrow=none;html=1;rounded=0;entryX=0;entryY=0.5;entryDx=0;entryDy=0;" edge="1" parent="1" target="odNg1halhqqwqWIwjPwi-21">
          <mxGeometry width="50" height="50" relative="1" as="geometry">
            <mxPoint x="240" y="439" as="sourcePoint" />
            <mxPoint x="290" y="389" as="targetPoint" />
            <Array as="points">
              <mxPoint x="300" y="440" />
              <mxPoint x="300" y="645" />
            </Array>
          </mxGeometry>
        </mxCell>
        <mxCell id="odNg1halhqqwqWIwjPwi-52" value="" style="endArrow=none;html=1;rounded=0;entryX=-0.037;entryY=0.533;entryDx=0;entryDy=0;entryPerimeter=0;" edge="1" parent="1" target="odNg1halhqqwqWIwjPwi-22">
          <mxGeometry width="50" height="50" relative="1" as="geometry">
            <mxPoint x="240" y="439" as="sourcePoint" />
            <mxPoint x="290" y="389" as="targetPoint" />
            <Array as="points">
              <mxPoint x="300" y="439" />
              <mxPoint x="300" y="760" />
            </Array>
          </mxGeometry>
        </mxCell>
        <mxCell id="odNg1halhqqwqWIwjPwi-53" value="" style="endArrow=none;html=1;rounded=0;entryX=0;entryY=0.5;entryDx=0;entryDy=0;" edge="1" parent="1" target="odNg1halhqqwqWIwjPwi-30">
          <mxGeometry width="50" height="50" relative="1" as="geometry">
            <mxPoint x="520" y="240" as="sourcePoint" />
            <mxPoint x="570" y="190" as="targetPoint" />
            <Array as="points">
              <mxPoint x="580" y="240" />
              <mxPoint x="580" y="150" />
            </Array>
          </mxGeometry>
        </mxCell>
        <mxCell id="odNg1halhqqwqWIwjPwi-54" value="" style="endArrow=none;html=1;rounded=0;entryX=0;entryY=0.5;entryDx=0;entryDy=0;" edge="1" parent="1" target="odNg1halhqqwqWIwjPwi-31">
          <mxGeometry width="50" height="50" relative="1" as="geometry">
            <mxPoint x="520" y="240" as="sourcePoint" />
            <mxPoint x="570" y="190" as="targetPoint" />
          </mxGeometry>
        </mxCell>
        <mxCell id="odNg1halhqqwqWIwjPwi-55" value="" style="endArrow=none;html=1;rounded=0;entryX=0;entryY=0.5;entryDx=0;entryDy=0;" edge="1" parent="1" target="odNg1halhqqwqWIwjPwi-32">
          <mxGeometry width="50" height="50" relative="1" as="geometry">
            <mxPoint x="520" y="240" as="sourcePoint" />
            <mxPoint x="570" y="190" as="targetPoint" />
            <Array as="points">
              <mxPoint x="580" y="240" />
              <mxPoint x="580" y="300" />
            </Array>
          </mxGeometry>
        </mxCell>
        <mxCell id="odNg1halhqqwqWIwjPwi-59" value="" style="endArrow=none;html=1;rounded=0;entryX=0;entryY=0.5;entryDx=0;entryDy=0;" edge="1" parent="1" target="odNg1halhqqwqWIwjPwi-33">
          <mxGeometry width="50" height="50" relative="1" as="geometry">
            <mxPoint x="520" y="439" as="sourcePoint" />
            <mxPoint x="570" y="389" as="targetPoint" />
            <Array as="points">
              <mxPoint x="580" y="440" />
              <mxPoint x="580" y="386" />
            </Array>
          </mxGeometry>
        </mxCell>
        <mxCell id="odNg1halhqqwqWIwjPwi-60" value="" style="endArrow=none;html=1;rounded=0;entryX=0;entryY=0.5;entryDx=0;entryDy=0;" edge="1" parent="1" target="odNg1halhqqwqWIwjPwi-36">
          <mxGeometry width="50" height="50" relative="1" as="geometry">
            <mxPoint x="520" y="439" as="sourcePoint" />
            <mxPoint x="570" y="389" as="targetPoint" />
          </mxGeometry>
        </mxCell>
        <mxCell id="odNg1halhqqwqWIwjPwi-61" value="" style="endArrow=none;html=1;rounded=0;entryX=0;entryY=0.5;entryDx=0;entryDy=0;" edge="1" parent="1" target="odNg1halhqqwqWIwjPwi-34">
          <mxGeometry width="50" height="50" relative="1" as="geometry">
            <mxPoint x="520" y="439" as="sourcePoint" />
            <mxPoint x="570" y="389" as="targetPoint" />
            <Array as="points">
              <mxPoint x="580" y="440" />
              <mxPoint x="580" y="500" />
            </Array>
          </mxGeometry>
        </mxCell>
        <mxCell id="odNg1halhqqwqWIwjPwi-62" value="" style="endArrow=none;html=1;rounded=0;entryX=0;entryY=0.5;entryDx=0;entryDy=0;" edge="1" parent="1" target="odNg1halhqqwqWIwjPwi-37">
          <mxGeometry width="50" height="50" relative="1" as="geometry">
            <mxPoint x="520" y="650" as="sourcePoint" />
            <mxPoint x="570" y="600" as="targetPoint" />
            <Array as="points">
              <mxPoint x="580" y="650" />
              <mxPoint x="580" y="620" />
            </Array>
          </mxGeometry>
        </mxCell>
        <mxCell id="odNg1halhqqwqWIwjPwi-63" value="" style="endArrow=none;html=1;rounded=0;entryX=0;entryY=0.5;entryDx=0;entryDy=0;" edge="1" parent="1" target="odNg1halhqqwqWIwjPwi-38">
          <mxGeometry width="50" height="50" relative="1" as="geometry">
            <mxPoint x="520" y="650" as="sourcePoint" />
            <mxPoint x="570" y="600" as="targetPoint" />
            <Array as="points">
              <mxPoint x="580" y="650" />
              <mxPoint x="580" y="675" />
            </Array>
          </mxGeometry>
        </mxCell>
        <mxCell id="odNg1halhqqwqWIwjPwi-64" value="" style="endArrow=none;html=1;rounded=0;entryX=0;entryY=0.5;entryDx=0;entryDy=0;" edge="1" parent="1" target="odNg1halhqqwqWIwjPwi-39">
          <mxGeometry width="50" height="50" relative="1" as="geometry">
            <mxPoint x="520" y="760" as="sourcePoint" />
            <mxPoint x="570" y="710" as="targetPoint" />
          </mxGeometry>
        </mxCell>
        <mxCell id="odNg1halhqqwqWIwjPwi-65" value="" style="endArrow=none;html=1;rounded=0;entryX=0;entryY=0.5;entryDx=0;entryDy=0;" edge="1" parent="1" target="odNg1halhqqwqWIwjPwi-44">
          <mxGeometry width="50" height="50" relative="1" as="geometry">
            <mxPoint x="800" y="150" as="sourcePoint" />
            <mxPoint x="850" y="100" as="targetPoint" />
            <Array as="points">
              <mxPoint x="860" y="150" />
              <mxPoint x="860" y="130" />
            </Array>
          </mxGeometry>
        </mxCell>
        <mxCell id="odNg1halhqqwqWIwjPwi-66" value="" style="endArrow=none;html=1;rounded=0;entryX=0;entryY=0.5;entryDx=0;entryDy=0;" edge="1" parent="1" target="odNg1halhqqwqWIwjPwi-45">
          <mxGeometry width="50" height="50" relative="1" as="geometry">
            <mxPoint x="800" y="150" as="sourcePoint" />
            <mxPoint x="850" y="100" as="targetPoint" />
            <Array as="points">
              <mxPoint x="860" y="150" />
              <mxPoint x="860" y="180" />
            </Array>
          </mxGeometry>
        </mxCell>
        <mxCell id="odNg1halhqqwqWIwjPwi-67" value="" style="endArrow=none;html=1;rounded=0;entryX=0;entryY=0.5;entryDx=0;entryDy=0;exitX=1;exitY=0.5;exitDx=0;exitDy=0;" edge="1" parent="1" source="odNg1halhqqwqWIwjPwi-31" target="odNg1halhqqwqWIwjPwi-46">
          <mxGeometry width="50" height="50" relative="1" as="geometry">
            <mxPoint x="800" y="245" as="sourcePoint" />
            <mxPoint x="850" y="195" as="targetPoint" />
          </mxGeometry>
        </mxCell>
        <mxCell id="odNg1halhqqwqWIwjPwi-68" value="" style="endArrow=none;html=1;rounded=0;entryX=0;entryY=0.5;entryDx=0;entryDy=0;exitX=1;exitY=0.5;exitDx=0;exitDy=0;" edge="1" parent="1" source="odNg1halhqqwqWIwjPwi-32" target="odNg1halhqqwqWIwjPwi-47">
          <mxGeometry width="50" height="50" relative="1" as="geometry">
            <mxPoint x="800" y="305" as="sourcePoint" />
            <mxPoint x="850" y="255" as="targetPoint" />
          </mxGeometry>
        </mxCell>
        <mxCell id="odNg1halhqqwqWIwjPwi-69" value="" style="endArrow=none;html=1;rounded=0;exitX=1;exitY=0.5;exitDx=0;exitDy=0;" edge="1" parent="1" source="odNg1halhqqwqWIwjPwi-33">
          <mxGeometry width="50" height="50" relative="1" as="geometry">
            <mxPoint x="870" y="610" as="sourcePoint" />
            <mxPoint x="920" y="560" as="targetPoint" />
            <Array as="points">
              <mxPoint x="860" y="386" />
              <mxPoint x="860" y="560" />
            </Array>
          </mxGeometry>
        </mxCell>
        <mxCell id="odNg1halhqqwqWIwjPwi-70" value="" style="endArrow=none;html=1;rounded=0;exitX=1;exitY=0.5;exitDx=0;exitDy=0;" edge="1" parent="1" source="odNg1halhqqwqWIwjPwi-36">
          <mxGeometry width="50" height="50" relative="1" as="geometry">
            <mxPoint x="870" y="610" as="sourcePoint" />
            <mxPoint x="920" y="560" as="targetPoint" />
            <Array as="points">
              <mxPoint x="860" y="440" />
              <mxPoint x="860" y="560" />
            </Array>
          </mxGeometry>
        </mxCell>
        <mxCell id="odNg1halhqqwqWIwjPwi-71" value="" style="endArrow=none;html=1;rounded=0;exitX=1;exitY=0.5;exitDx=0;exitDy=0;" edge="1" parent="1" source="odNg1halhqqwqWIwjPwi-34">
          <mxGeometry width="50" height="50" relative="1" as="geometry">
            <mxPoint x="870" y="610" as="sourcePoint" />
            <mxPoint x="920" y="560" as="targetPoint" />
            <Array as="points">
              <mxPoint x="860" y="500" />
              <mxPoint x="860" y="560" />
            </Array>
          </mxGeometry>
        </mxCell>
        <mxCell id="odNg1halhqqwqWIwjPwi-72" value="" style="endArrow=none;html=1;rounded=0;exitX=1;exitY=0.5;exitDx=0;exitDy=0;" edge="1" parent="1" source="odNg1halhqqwqWIwjPwi-37">
          <mxGeometry width="50" height="50" relative="1" as="geometry">
            <mxPoint x="870" y="610" as="sourcePoint" />
            <mxPoint x="920" y="560" as="targetPoint" />
            <Array as="points">
              <mxPoint x="860" y="620" />
              <mxPoint x="860" y="560" />
            </Array>
          </mxGeometry>
        </mxCell>
        <mxCell id="odNg1halhqqwqWIwjPwi-73" value="" style="endArrow=none;html=1;rounded=0;exitX=1;exitY=0.5;exitDx=0;exitDy=0;" edge="1" parent="1" source="odNg1halhqqwqWIwjPwi-38">
          <mxGeometry width="50" height="50" relative="1" as="geometry">
            <mxPoint x="870" y="610" as="sourcePoint" />
            <mxPoint x="920" y="560" as="targetPoint" />
            <Array as="points">
              <mxPoint x="860" y="675" />
              <mxPoint x="860" y="560" />
            </Array>
          </mxGeometry>
        </mxCell>
        <mxCell id="odNg1halhqqwqWIwjPwi-74" value="" style="endArrow=none;html=1;rounded=0;exitX=1;exitY=0.5;exitDx=0;exitDy=0;" edge="1" parent="1" source="odNg1halhqqwqWIwjPwi-39">
          <mxGeometry width="50" height="50" relative="1" as="geometry">
            <mxPoint x="870" y="610" as="sourcePoint" />
            <mxPoint x="920" y="560" as="targetPoint" />
            <Array as="points">
              <mxPoint x="860" y="760" />
              <mxPoint x="860" y="560" />
            </Array>
          </mxGeometry>
        </mxCell>
      </root>
    </mxGraphModel>
  </diagram>
</mxfile>
